<svg width="60" height="86" viewBox="0 0 60 86" fill="none" xmlns="http://www.w3.org/2000/svg">
<path d="M16.1018 76.1594C16.1035 77.2137 16.4153 78.2463 17.0003 79.1246L19.8649 83.4308C20.3543 84.167 21.0181 84.7707 21.7971 85.1883C22.5762 85.6059 23.4464 85.8245 24.3304 85.8245H34.6744C35.5583 85.8245 36.4286 85.6059 37.2076 85.1883C37.9867 84.7707 38.6505 84.167 39.1398 83.4308L42.0045 79.1246C42.5892 78.2462 42.9018 77.2147 42.903 76.1594L42.9097 69.7311H16.0934L16.1018 76.1594ZM0 29.5017C0 36.9391 2.75739 43.7244 7.30163 48.909C10.0708 52.0687 14.4021 58.6697 16.0532 64.2381C16.0599 64.2817 16.0649 64.3252 16.0716 64.3688H42.9315C42.9382 64.3252 42.9432 64.2833 42.9499 64.2381C44.601 58.6697 48.9323 52.0687 51.7015 48.909C56.2457 43.7244 59.0031 36.9391 59.0031 29.5017C59.0031 13.1769 45.7458 -0.0501438 29.4094 0.000142911C12.3102 0.0521059 0 13.9078 0 29.5017ZM29.5015 16.0919C22.1077 16.0919 16.0918 22.1079 16.0918 29.5017C16.0918 30.9835 14.8916 32.1836 13.4098 32.1836C11.928 32.1836 10.7278 30.9835 10.7278 29.5017C10.7278 19.1493 19.1492 10.728 29.5015 10.728C30.9833 10.728 32.1835 11.9282 32.1835 13.4099C32.1835 14.8917 30.9833 16.0919 29.5015 16.0919Z" fill="#00DAE8"/>
</svg>
