<svg width="97" height="50" viewBox="0 0 97 50" fill="none" xmlns="http://www.w3.org/2000/svg">
<g clip-path="url(#clip0_52_171)">
<path d="M0 2C0 1.44772 0.447715 1 1 1H193C193.552 1 194 1.44772 194 2V10C194 10.5523 193.552 11 193 11H0.999994C0.44771 11 0 10.5523 0 10V2Z" fill="#00DAE8"/>
<path d="M0 41C0 40.4477 0.447715 40 1 40H193C193.552 40 194 40.4477 194 41V49C194 49.5523 193.552 50 193 50H0.999994C0.44771 50 0 49.5523 0 49V41Z" fill="#00DAE8"/>
<path d="M6.3374 21.325V20.5H12.7124L12.6974 20.59L12.8924 22.66L12.1424 22.78L11.9624 21.325H8.2724V25.345H11.5424V24.4H12.3674V26.98H11.5424V26.17H8.2724V30.175H12.3674L12.5924 28.3L13.3274 28.375L13.1024 31H6.3374V30.175H7.2524V21.325H6.3374ZM14.3062 21.325V20.5H17.9212C19.2712 20.5 20.3512 20.895 21.1612 21.685C21.9812 22.465 22.3912 23.74 22.3912 25.51C22.3912 27.26 22.1062 28.57 21.5362 29.44C21.0362 30.2 20.2562 30.68 19.1962 30.88C18.7262 30.96 18.1762 31 17.5462 31H14.3062V30.175H15.2212V21.325H14.3062ZM17.8462 21.325H16.2412V30.175H17.4712C18.8012 30.175 19.7162 29.93 20.2162 29.44C20.7462 28.93 21.0862 28.24 21.2362 27.37C21.3262 26.86 21.3712 26.265 21.3712 25.585C21.3712 24.085 21.0412 23 20.3812 22.33C19.7312 21.66 18.8862 21.325 17.8462 21.325ZM28.1383 21.31C27.0083 21.31 26.1133 21.73 25.4533 22.57C24.7933 23.41 24.4633 24.62 24.4633 26.2C24.4633 26.88 24.5333 27.475 24.6733 27.985C24.8133 28.495 24.9833 28.89 25.1833 29.17C25.3933 29.45 25.6483 29.67 25.9483 29.83C26.4283 30.1 26.9883 30.235 27.6283 30.235C28.6183 30.235 29.6083 30.125 30.5983 29.905L30.7783 30.685C30.6083 30.745 30.1533 30.825 29.4133 30.925C28.6833 31.015 28.0883 31.06 27.6283 31.06C27.1683 31.06 26.7683 31.03 26.4283 30.97C26.0883 30.9 25.7283 30.76 25.3483 30.55C24.9683 30.34 24.6433 30.065 24.3733 29.725C24.1133 29.375 23.8933 28.9 23.7133 28.3C23.5333 27.7 23.4433 27 23.4433 26.2C23.4433 24.43 23.8483 23.05 24.6583 22.06C25.5083 21.02 26.6683 20.5 28.1383 20.5C28.5883 20.5 29.0733 20.545 29.5933 20.635C30.1233 20.715 30.4983 20.795 30.7183 20.875L30.8983 23.035L30.1633 23.14L29.9533 21.52C29.3133 21.38 28.7083 21.31 28.1383 21.31ZM32.0161 21.325V20.5H35.6311C36.6611 20.5 37.4561 20.725 38.0161 21.175C38.5761 21.625 38.8561 22.295 38.8561 23.185C38.8561 23.775 38.6461 24.39 38.2261 25.03C37.8161 25.66 37.4111 26.09 37.0111 26.32L39.3811 30.175H40.4461V31H38.7961L36.1261 26.695H33.9511V30.175H35.0461V31H32.0161V30.175H32.9311V21.325H32.0161ZM35.5561 21.325H33.9511V25.87H36.4261C37.3661 25.01 37.8361 24.145 37.8361 23.275C37.8361 22.635 37.6411 22.15 37.2511 21.82C36.8611 21.49 36.2961 21.325 35.5561 21.325ZM41.3472 21.325V20.5H47.7222L47.7072 20.59L47.9022 22.66L47.1522 22.78L46.9722 21.325H43.2822V25.345H46.5522V24.4H47.3772V26.98H46.5522V26.17H43.2822V30.175H47.3772L47.6022 28.3L48.3372 28.375L48.1122 31H41.3472V30.175H42.2622V21.325H41.3472ZM55.8859 31V30.175H56.8009L56.1109 28.225H51.4909L50.8159 30.175H51.8959V31H48.8659V30.175H49.8559L53.3509 20.5H54.2659L57.8809 30.175H58.9159V31H55.8859ZM53.7559 21.64L51.7459 27.475H55.8409L53.7559 21.64ZM60.8104 31V30.175H61.7854V21.4H59.5804L59.4154 22.78L58.6804 22.66L58.8604 20.5H65.7004L65.8954 22.66L65.1454 22.78L64.9654 21.4H62.7304V30.175H63.8254V31H60.8104ZM66.8062 21.325V20.5H69.8362V21.325H68.8162V30.175H69.8362V31H66.8062V30.175H67.7962V21.325H66.8062ZM71.0214 25.78C71.0214 24.15 71.4414 22.855 72.2814 21.895C73.1314 20.925 74.1864 20.44 75.4464 20.44C78.3964 20.44 79.8714 22.22 79.8714 25.78C79.8714 27.4 79.4514 28.685 78.6114 29.635C77.7714 30.585 76.7164 31.06 75.4464 31.06C72.4964 31.06 71.0214 29.3 71.0214 25.78ZM72.0414 25.75C72.0414 28.69 73.1764 30.16 75.4464 30.16C76.4264 30.16 77.2364 29.77 77.8764 28.99C78.5264 28.21 78.8514 27.13 78.8514 25.75C78.8514 22.81 77.7164 21.34 75.4464 21.34C74.4664 21.34 73.6514 21.735 73.0014 22.525C72.3614 23.305 72.0414 24.38 72.0414 25.75ZM80.8672 21.325V20.5H82.9222L88.8922 29.65L88.8322 21.325H87.8572V20.5H90.7222V21.325H89.7772V31H88.6822L82.6972 21.85L82.7572 30.175H83.8972V31H80.8672V30.175H81.8272V21.325H80.8672Z" fill="white"/>
<path d="M5.5874 32.5H91.4122V33.25H5.5874V32.5Z" fill="white"/>
</g>
<defs>
<clipPath id="clip0_52_171">
<rect width="97" height="50" fill="white"/>
</clipPath>
</defs>
</svg>
